<svg id="Livello_1" data-name="Livello 1" xmlns="http://www.w3.org/2000/svg" viewBox="0 0 3932 1154"><defs><style>.cls-1{fill:#556555;}</style></defs><title>stacco-news-destkop</title><path class="cls-1" d="M2266-146.11v868c-7.61-.55-15.21-1.49-22.83-1.6-53.93-.78-107.86-2-161.79-1.95q-196.4.13-392.8,1.28c-59.6.29-119.19,1.19-178.79,2q-59.4.77-118.79,2c-26.6.52-53.2,1.3-79.8,2l-77.8,2-78.8,2c-26.27.67-52.53,1.28-78.8,2-20.94.58-41.87,1.3-62.8,2q-29.9,1-59.8,2-55.3,2-110.6,4-49.81,1.89-99.6,4-44.81,1.89-89.61,4-43.31,2-86.61,4c-25.21,1.24-50.41,2.61-75.61,4q-36.31,2-72.61,4-34.31,1.94-68.61,4-47.21,2.91-94.42,6C232,771,208.49,772.46,185,774c-27.15,1.8-54.3,3.75-81.45,5.6-13.92.95-27.85,1.63-41.76,2.75-28.43,2.29-56.84,4.88-85.27,7.17-21.84,1.75-43.73,3-65.55,4.87-41.31,3.56-82.59,7.46-123.88,11.16-18.51,1.66-37.06,3-55.56,4.77-37.3,3.62-74.58,7.55-111.88,11.2-31,3-62.14,5.59-93.16,8.82-46.51,4.85-93,10.07-139.47,15.21-37.93,4.19-75.87,8.23-113.75,12.81q-77.06,9.33-154,19.42c-36.2,4.68-72.41,9.35-108.52,14.67-47.28,7-94.54,14.15-141.69,22-68.78,11.41-137.55,22.87-206.13,35.38-89.19,16.28-178.21,33.56-267.27,50.57-10.62,2-21.06,5-31.58,7.52h-30v-1142c5.31,0.14,10.66-.11,15.93.47,44.84,5,89.63,10.31,134.48,15.1q60.36,6.46,120.83,12c40.31,3.67,80.68,6.76,121,10.09q36.21,3,72.42,6c41.68,3.37,83.34,6.92,125,10,32.11,2.35,64.27,4.09,96.42,6.07q33.3,2,66.61,4c23.2,1.36,46.41,2.74,69.61,4,26.2,1.41,52.41,2.68,78.61,4,25.87,1.33,51.74,2.7,77.61,4,27.87,1.38,55.74,2.78,83.61,4,33.53,1.45,67.07,2.7,100.61,4,34.2,1.35,68.4,2.77,102.61,4,23.6,0.83,47.2,1.38,70.8,2q37.4,1,74.8,2c29.27,0.72,58.53,1.47,87.8,2,43.6,0.77,87.2,1.56,130.8,2q73,0.69,145.95.67c41.32,0,82.63-.32,123.95-0.64q71.92-.55,143.84-1.35c40.94-.5,81.87-1.31,122.8-2,42.27-.68,84.54-1.24,126.8-2,23.61-.45,47.2-1.33,70.81-1.94,27.6-.72,55.2-1.31,82.8-2,24.27-.63,48.54-1.24,72.8-2.09,33.87-1.19,67.74-2.57,101.61-3.9,18.93-.75,37.86-1.49,56.78-2.37,24.22-1.13,48.42-2.47,72.64-3.6,18.59-.87,37.19-1.47,55.78-2.34,24.22-1.14,48.42-2.51,72.64-3.65,18.92-.89,37.87-1.32,56.78-2.41,28.49-1.65,57-3.74,85.44-5.59q46.71-3,93.42-6,48.21-3,96.42-6c24.2-1.48,48.42-2.62,72.59-4.38,33.43-2.43,66.82-5.35,100.23-8,20.19-1.58,40.4-2.85,60.58-4.48,28.43-2.29,56.84-4.88,85.28-7.17,21.84-1.75,43.73-3,65.56-4.89,32.38-2.84,64.72-6.16,97.09-9.11,26.11-2.38,52.27-4.29,78.36-6.82,37.64-3.64,75.23-7.74,112.87-11.46C2233.61-143.63,2249.81-144.76,2266-146.11Z" transform="translate(1666 146.11)"/></svg>